<svg xmlns="http://www.w3.org/2000/svg" viewBox="0 0 474 320"><defs><style>.cls-1{isolation:isolate;}.cls-2{fill:#003178;}.cls-3{fill:#e6e6e6;}.cls-4{fill:#eb3c00;}.cls-14,.cls-4,.cls-5,.cls-6{fill-rule:evenodd;}.cls-5,.cls-7{fill:#fff;}.cls-6{fill:#002050;}.cls-8{fill:#999;}.cls-14,.cls-9{fill:#ccc;}.cls-9{opacity:0.6;}.cls-13,.cls-9{mix-blend-mode:multiply;}.cls-10{fill:#009e49;}.cls-11{fill:#007233;}.cls-12{fill:#7fba00;}</style></defs><title>illus</title><g class="cls-1"><g id="Illustrations"><polygon class="cls-2" points="44.57 238.64 44.57 131.08 60.66 114.5 83.79 114.5 83.79 195.39 96.9 195.39 96.9 16.43 103.68 16.43 103.68 6.32 121.06 6.32 121.06 16.43 135.47 16.43 135.47 0 138.86 0 138.86 16.43 151.16 16.43 151.16 111.56 165.72 111.56 165.72 79.81 202.45 79.81 202.45 220.87 303.49 220.87 303.49 31.81 342.91 61.01 342.91 143.32 374.99 143.32 374.99 60.44 381.55 60.44 387.06 45.28 390.45 45.28 390.45 0 394.27 0 394.27 45.28 397.66 45.28 403.17 60.44 410.46 60.44 410.46 132.85 418.43 132.85 418.63 318.86 15.25 320.01 15.25 238.64 44.57 238.64"/><polygon class="cls-3" points="38.37 187.19 135.11 187.19 147.72 187.19 147.72 297.09 38.37 297.09 38.37 187.19"/><path class="cls-4" d="M237.11,56.77s5.47-2.89,10.52-.68S258.2,64,265.46,62.4l0,2.45c-7.26,1.63-12.78-4.11-17.83-6.31s-10.52.68-10.52,0.68Z"/><path class="cls-5" d="M237.11,59.21s5.47-2.89,10.52-.68,10.57,7.95,17.83,6.31l0,2.45c-7.26,1.63-12.78-4.11-17.83-6.31s-10.52.68-10.52,0.68Z"/><path class="cls-4" d="M237.11,61.66s5.47-2.89,10.52-.68,10.57,7.95,17.83,6.31l0,2.45c-7.26,1.63-12.78-4.11-17.83-6.31s-10.52.68-10.52,0.68Z"/><path class="cls-5" d="M237.11,64.1s5.47-2.89,10.52-.68,10.57,7.95,17.83,6.31l0,2.45c-7.26,1.63-12.78-4.11-17.83-6.31s-10.52.68-10.52,0.68Z"/><path class="cls-4" d="M237.11,66.55s5.47-2.89,10.52-.68,10.57,7.95,17.83,6.31l0,2.45c-7.26,1.63-12.78-4.11-17.83-6.31S237.09,69,237.09,69Z"/><path class="cls-5" d="M237.11,69s5.47-2.89,10.52-.68,10.57,7.95,17.83,6.31l0,2.45c-7.26,1.63-12.78-4.11-17.83-6.31s-10.52.68-10.52,0.68Z"/><path class="cls-4" d="M237.11,71.44s5.47-2.89,10.52-.68,10.57,7.95,17.83,6.31l0,2.45c-7.26,1.63-12.78-4.11-17.83-6.31s-10.52.68-10.52,0.68Z"/><path class="cls-6" d="M249.44,57c-0.61-.34-1.21-0.65-1.8-0.91-5-2.21-10.52.68-10.52,0.68s0,2.44,0,2.42l0,0v2.45l0,2.45s5.47-2.89,10.52-.68c0.6,0.26,1.21.58,1.82,0.92V57Z"/><circle class="cls-7" cx="243.37" cy="59.01" r="1.5"/><path class="cls-6" d="M236.13,48.55c1.13,1.13,3.26,3.38,3.26,3.38s-1.82,1-1.82,2.13v-1l0.11,46.71c0.42,0.47-.07.85-0.54,0.85s-2.39-.38-2.39-0.85V54.06h0c0-1.13-1.87-2.13-1.87-2.13S235,49.68,236.13,48.55Z"/><polygon class="cls-2" points="366.26 223.69 447.32 223.69 447.32 238.64 458.75 238.64 458.75 320 389.75 320 389.75 319.95 366.26 319.95 366.26 223.69"/><polygon class="cls-3" points="435.96 187.19 338.28 187.19 331.27 187.19 331.27 297.09 435.96 297.09 435.96 187.19"/><rect class="cls-8" x="331.28" y="200.5" width="108.15" height="4.23"/><rect class="cls-7" x="413.29" y="216.21" width="8.66" height="14.95"/><rect class="cls-8" x="394.96" y="216.21" width="8.74" height="14.95"/><rect class="cls-8" x="376.62" y="216.21" width="8.74" height="14.95"/><rect class="cls-7" x="358.35" y="216.21" width="8.66" height="14.95"/><polygon class="cls-9" points="420.76 282.86 331.27 187.19 331.27 282.86 420.76 282.86"/><rect class="cls-7" x="142.98" y="128.28" width="188.3" height="168.85"/><polygon class="cls-7" points="236.26 97.69 298.13 128.45 176.12 128.45 236.26 97.69"/><polygon class="cls-3" points="236.16 97.74 236.26 97.69 297.79 128.28 331.27 128.28 331.27 252.24 236.16 252.24 236.16 97.74"/><rect class="cls-3" x="52.29" y="216.21" width="8.74" height="14.95"/><rect class="cls-8" x="70.57" y="216.21" width="8.74" height="14.95"/><rect class="cls-8" x="88.91" y="216.21" width="8.74" height="14.95"/><rect class="cls-3" x="107.24" y="216.21" width="7.8" height="14.95"/><rect class="cls-8" x="163.92" y="143.32" width="8.74" height="14.95"/><rect class="cls-3" x="182.2" y="143.32" width="8.74" height="14.95"/><rect class="cls-3" x="200.54" y="143.32" width="8.74" height="14.95"/><rect class="cls-8" x="218.87" y="143.32" width="7.8" height="14.95"/><rect class="cls-7" x="247.65" y="143.32" width="8.74" height="14.95"/><rect class="cls-8" x="265.93" y="143.32" width="8.74" height="14.95"/><rect class="cls-8" x="284.27" y="143.32" width="8.74" height="14.95"/><rect class="cls-7" x="302.61" y="143.32" width="7.8" height="14.95"/><rect class="cls-8" x="33.95" y="200.5" width="109.02" height="4.23"/><rect class="cls-8" x="331.27" y="238.16" width="10.47" height="33.43"/><rect class="cls-8" x="132.5" y="238.16" width="10.47" height="33.43"/><path class="cls-8" d="M237.13,187.19c9.6,0,17.47,7.87,17.47,18.48v46.57H219.73V205.67C219.73,195.06,227.52,187.19,237.13,187.19Z"/><path class="cls-8" d="M181.32,187.19c10.47,0,18.34,7.87,18.34,18.48v46.57H163.92V205.67C163.92,195.06,171.72,187.19,181.32,187.19Z"/><path class="cls-8" d="M292.07,187.19c10.47,0,18.34,7.87,18.34,18.48v46.57H274.6V205.67C274.6,195.06,282.47,187.19,292.07,187.19Z"/><rect class="cls-8" x="138.57" y="257.51" width="197.1" height="4.4"/><rect class="cls-8" x="132.52" y="257.51" width="209.22" height="32.13"/><rect class="cls-8" x="138.57" y="164.3" width="197.1" height="4.4"/><rect class="cls-8" x="138.57" y="128.27" width="197.1" height="4.4"/><rect class="cls-7" x="132.5" y="252.12" width="209.24" height="7.66"/><rect class="cls-8" x="125.72" y="259.72" width="222.81" height="7.66"/><rect class="cls-8" x="112.16" y="274.68" width="249.93" height="7.66"/><rect class="cls-7" x="118.94" y="267.2" width="235.51" height="7.48"/><rect class="cls-7" x="105.37" y="282.16" width="262.64" height="7.48"/><rect class="cls-8" x="99.9" y="289.64" width="273.59" height="7.48"/><path class="cls-10" d="M265.77,320a23,23,0,0,0-22.88-22.88h-220A23,23,0,0,0,0,320H265.77Z"/><path class="cls-10" d="M474,320c0-20.81-18.24-37.84-40.53-37.84H242.15c-22.29,0-40.53,17-40.53,37.84H474Z"/><polygon class="cls-11" points="417.58 240.21 398.69 309.95 436.15 309.95 417.58 240.21"/><polygon class="cls-11" points="104.09 273.28 93.2 307.69 114.98 307.69 104.09 273.28"/><path class="cls-12" d="M51.34,297.09a6.31,6.31,0,0,1-1.05-3.49,6.53,6.53,0,0,1,6.53-6.53,6.79,6.79,0,0,1,1.85.25,9.54,9.54,0,0,1,18.35,3,4.91,4.91,0,0,1,4.8,4.92,4.34,4.34,0,0,1-.34,1.81H51.34Z"/><polygon class="cls-12" points="380.03 270.85 370.04 302.43 390.03 302.43 380.03 270.85"/><polygon class="cls-12" points="380.03 258.99 371.81 284.83 388.25 284.83 380.03 258.99"/><polygon class="cls-12" points="380.03 251.8 375.39 267.24 385.03 267.24 380.03 251.8"/><g class="cls-13"><path class="cls-14" d="M219.77,204.73h34.79c-0.45-10.13-8.11-17.54-17.43-17.54S220.22,194.6,219.77,204.73Z"/><path class="cls-14" d="M274.64,204.73h35.72a17.9,17.9,0,0,0-18.29-17.54C282.76,187.19,275.1,194.6,274.64,204.73Z"/><path class="cls-14" d="M164,204.73h35.65a17.9,17.9,0,0,0-18.3-17.54C172,187.19,164.41,194.6,164,204.73Z"/></g><rect class="cls-9" x="142.98" y="168.6" width="188.3" height="4.11"/><rect class="cls-9" x="142.98" y="132.62" width="188.3" height="4.11"/></g></g></svg>